<svg width="194" height="26" viewBox="0 0 194 26" fill="none" xmlns="http://www.w3.org/2000/svg">
<rect x="4.5" width="18" height="26" rx="1.5" fill="#4C060C"/>
<rect x="3.5" y="0.75" width="18" height="24.5" rx="2" fill="#00DDFF"/>
<rect width="18" height="26" rx="1.5" fill="#AD0A23"/>
<path d="M31.36 7.96V7.4H36.88C37.9467 7.4 38.7933 7.54667 39.42 7.84C40.0467 8.13333 40.4933 8.52 40.76 9C41.04 9.48 41.18 10.0133 41.18 10.6V11.14C41.18 11.8333 40.96 12.4333 40.52 12.94C40.0933 13.4333 39.4667 13.7867 38.64 14C39.6533 14.1733 40.4267 14.5333 40.96 15.08C41.5067 15.6267 41.78 16.3133 41.78 17.14V17.7C41.78 18.3 41.64 18.8533 41.36 19.36C41.08 19.8533 40.6133 20.2533 39.96 20.56C39.32 20.8533 38.46 21 37.38 21H31.36V20.44L32.46 20.3C32.6733 20.2733 32.8 20.22 32.84 20.14C32.88 20.0467 32.9 19.7733 32.9 19.32V9.08C32.9 8.62667 32.88 8.36 32.84 8.28C32.8 8.18667 32.6733 8.12667 32.46 8.1L31.36 7.96ZM36.88 8.1H35.3V13.7H36.88C37.4533 13.7 37.8867 13.5067 38.18 13.12C38.4733 12.72 38.62 12.0933 38.62 11.24V10.6C38.62 9.73333 38.4733 9.1 38.18 8.7C37.8867 8.3 37.4533 8.1 36.88 8.1ZM37.38 14.4H35.3V20.3H37.38C37.98 20.3 38.4333 20.1 38.74 19.7C39.06 19.2867 39.22 18.62 39.22 17.7V17.04C39.22 15.28 38.6067 14.4 37.38 14.4ZM53.0242 15.72V16.12C53.0242 17.6533 52.6242 18.8867 51.8242 19.82C51.0376 20.74 49.9109 21.2 48.4442 21.2C46.9776 21.2 45.8442 20.74 45.0442 19.82C44.2576 18.8867 43.8642 17.6533 43.8642 16.12V15.72C43.8642 14.1867 44.2576 12.96 45.0442 12.04C45.8442 11.12 46.9776 10.66 48.4442 10.66C49.9109 10.66 51.0376 11.12 51.8242 12.04C52.6242 12.96 53.0242 14.1867 53.0242 15.72ZM50.5642 15.32C50.5642 13.8933 50.3842 12.88 50.0242 12.28C49.6642 11.6667 49.1376 11.36 48.4442 11.36C47.7642 11.36 47.2376 11.6667 46.8642 12.28C46.5042 12.88 46.3242 13.8933 46.3242 15.32V16.52C46.3242 17.9333 46.5042 18.9533 46.8642 19.58C47.2376 20.1933 47.7642 20.5 48.4442 20.5C49.1376 20.5 49.6642 20.1933 50.0242 19.58C50.3842 18.9533 50.5642 17.9333 50.5642 16.52V15.32ZM64.2547 15.72V16.12C64.2547 17.6533 63.8547 18.8867 63.0547 19.82C62.268 20.74 61.1414 21.2 59.6747 21.2C58.208 21.2 57.0747 20.74 56.2747 19.82C55.488 18.8867 55.0947 17.6533 55.0947 16.12V15.72C55.0947 14.1867 55.488 12.96 56.2747 12.04C57.0747 11.12 58.208 10.66 59.6747 10.66C61.1414 10.66 62.268 11.12 63.0547 12.04C63.8547 12.96 64.2547 14.1867 64.2547 15.72ZM61.7947 15.32C61.7947 13.8933 61.6147 12.88 61.2547 12.28C60.8947 11.6667 60.368 11.36 59.6747 11.36C58.9947 11.36 58.468 11.6667 58.0947 12.28C57.7347 12.88 57.5547 13.8933 57.5547 15.32V16.52C57.5547 17.9333 57.7347 18.9533 58.0947 19.58C58.468 20.1933 58.9947 20.5 59.6747 20.5C60.368 20.5 60.8947 20.1933 61.2547 19.58C61.6147 18.9533 61.7947 17.9333 61.7947 16.52V15.32ZM65.6052 6.76V6.2H69.4452V15.9L72.9652 12.54C73.4318 12.1 73.6785 11.8333 73.7052 11.74C73.7452 11.6467 73.6518 11.5867 73.4252 11.56L72.3252 11.42V10.86H76.4252V11.42L75.3252 11.56C75.2052 11.5733 75.1052 11.6 75.0252 11.64C74.9452 11.68 74.8318 11.7667 74.6852 11.9C74.5385 12.02 74.3052 12.2333 73.9852 12.54L72.0652 14.38L74.9052 19.32C75.0918 19.6267 75.2318 19.8467 75.3252 19.98C75.4185 20.1 75.5052 20.18 75.5852 20.22C75.6785 20.2467 75.7918 20.2733 75.9252 20.3L77.0252 20.44V21H73.2052L70.4252 15.94L69.4452 16.88V19.32C69.4452 19.7733 69.4652 20.0467 69.5052 20.14C69.5452 20.22 69.6718 20.2733 69.8852 20.3L70.9852 20.44V21H65.6052V20.44L66.7052 20.3C66.9185 20.2733 67.0452 20.22 67.0852 20.14C67.1252 20.0467 67.1452 19.7733 67.1452 19.32V7.88C67.1452 7.42667 67.1252 7.16 67.0852 7.08C67.0452 6.98667 66.9185 6.92667 66.7052 6.9L65.6052 6.76ZM77.283 7.4H88.283V10.84H87.723L87.083 8.62C87.043 8.44667 86.9963 8.32667 86.943 8.26C86.903 8.18 86.8163 8.13333 86.683 8.12C86.5496 8.10667 86.323 8.1 86.003 8.1H83.983V19.32C83.983 19.7733 84.003 20.0467 84.043 20.14C84.083 20.22 84.2096 20.2733 84.423 20.3L85.523 20.44V21H80.043V20.44L81.143 20.3C81.3563 20.2733 81.483 20.22 81.523 20.14C81.563 20.0467 81.583 19.7733 81.583 19.32V8.1H79.563C79.2563 8.1 79.0296 8.10667 78.883 8.12C78.7496 8.13333 78.663 8.18 78.623 8.26C78.583 8.32667 78.5363 8.44667 78.483 8.62L77.843 10.84H77.283V7.4ZM88.9873 11.42V10.86H92.7073V12.5C93.5207 11.2733 94.4873 10.66 95.6073 10.66C96.0207 10.66 96.4207 10.7933 96.8073 11.06C97.194 11.3133 97.514 11.7933 97.7673 12.5L95.9873 13.46C95.8007 12.9133 95.5807 12.5467 95.3273 12.36C95.0873 12.16 94.8273 12.06 94.5473 12.06C94.254 12.06 93.9673 12.1533 93.6873 12.34C93.4073 12.5267 93.1207 12.8733 92.8273 13.38V19.32C92.8273 19.7733 92.8473 20.0467 92.8873 20.14C92.9273 20.22 93.054 20.2733 93.2673 20.3L94.7673 20.44V21H88.9873V20.44L90.0873 20.3C90.3007 20.2733 90.4273 20.22 90.4673 20.14C90.5073 20.0467 90.5273 19.7733 90.5273 19.32V12.54C90.5273 12.0867 90.5073 11.82 90.4673 11.74C90.4273 11.6467 90.3007 11.5867 90.0873 11.56L88.9873 11.42ZM108.328 20.5C108.115 20.7 107.855 20.8667 107.548 21C107.255 21.1333 106.895 21.2 106.468 21.2C105.921 21.2 105.461 21.08 105.088 20.84C104.728 20.6 104.488 20.26 104.368 19.82C103.928 20.3 103.441 20.6533 102.908 20.88C102.388 21.0933 101.855 21.2 101.308 21.2C100.388 21.2 99.7013 20.9467 99.248 20.44C98.7946 19.92 98.568 19.2733 98.568 18.5C98.568 17.7133 98.8546 17.08 99.428 16.6C100.001 16.1067 101.015 15.86 102.468 15.86H104.288V14.24C104.288 13.1333 104.141 12.38 103.848 11.98C103.568 11.5667 103.175 11.36 102.668 11.36C102.335 11.36 102.028 11.4467 101.748 11.62C101.468 11.78 101.268 12.0867 101.148 12.54C101.041 12.98 101.061 13.62 101.208 14.46L99.008 14.14C98.9013 13.5267 98.968 12.96 99.208 12.44C99.4613 11.9067 99.8813 11.48 100.468 11.16C101.055 10.8267 101.801 10.66 102.708 10.66C103.735 10.66 104.528 10.8267 105.088 11.16C105.648 11.4933 106.035 11.9333 106.248 12.48C106.475 13.0267 106.588 13.6133 106.588 14.24V18.86C106.588 19.54 106.648 19.9667 106.768 20.14C106.888 20.3133 107.021 20.4 107.168 20.4C107.408 20.4 107.675 20.26 107.968 19.98L108.328 20.5ZM102.188 20.14C102.535 20.14 102.875 20.0533 103.208 19.88C103.555 19.6933 103.915 19.3533 104.288 18.86V16.56H102.788C102.135 16.56 101.661 16.7133 101.368 17.02C101.075 17.3267 100.928 17.8067 100.928 18.46C100.928 18.9933 101.035 19.4067 101.248 19.7C101.461 19.9933 101.775 20.14 102.188 20.14ZM113.85 11.36C113.21 11.36 112.73 11.6667 112.41 12.28C112.103 12.88 111.95 13.8933 111.95 15.32V16.52C111.95 17.9333 112.13 18.9533 112.49 19.58C112.85 20.1933 113.436 20.5 114.25 20.5C114.85 20.5 115.336 20.3333 115.71 20C116.096 19.6533 116.316 19.0733 116.37 18.26L117.65 18.62C117.41 19.5533 116.97 20.22 116.33 20.62C115.703 21.0067 114.963 21.2 114.11 21.2C112.576 21.2 111.423 20.74 110.65 19.82C109.876 18.8867 109.49 17.6533 109.49 16.12V15.72C109.49 14.1867 109.863 12.96 110.61 12.04C111.356 11.12 112.436 10.66 113.85 10.66C114.783 10.66 115.543 10.8467 116.13 11.22C116.73 11.58 117.15 12.06 117.39 12.66C117.643 13.2467 117.71 13.88 117.59 14.56L115.39 14.88C115.536 13.76 115.476 12.8933 115.21 12.28C114.943 11.6667 114.49 11.36 113.85 11.36ZM118.808 6.76V6.2H122.648V15.9L126.168 12.54C126.635 12.1 126.882 11.8333 126.908 11.74C126.948 11.6467 126.855 11.5867 126.628 11.56L125.528 11.42V10.86H129.628V11.42L128.528 11.56C128.408 11.5733 128.308 11.6 128.228 11.64C128.148 11.68 128.035 11.7667 127.888 11.9C127.742 12.02 127.508 12.2333 127.188 12.54L125.268 14.38L128.108 19.32C128.295 19.6267 128.435 19.8467 128.528 19.98C128.622 20.1 128.708 20.18 128.788 20.22C128.882 20.2467 128.995 20.2733 129.128 20.3L130.228 20.44V21H126.408L123.628 15.94L122.648 16.88V19.32C122.648 19.7733 122.668 20.0467 122.708 20.14C122.748 20.22 122.875 20.2733 123.088 20.3L124.188 20.44V21H118.808V20.44L119.908 20.3C120.122 20.2733 120.248 20.22 120.288 20.14C120.328 20.0467 120.348 19.7733 120.348 19.32V7.88C120.348 7.42667 120.328 7.16 120.288 7.08C120.248 6.98667 120.122 6.92667 119.908 6.9L118.808 6.76ZM135.579 7.96V7.4H141.619C143.019 7.4 144.099 7.71333 144.859 8.34C145.619 8.96667 145.999 9.80667 145.999 10.86V11.32C145.999 12.12 145.779 12.8 145.339 13.36C144.899 13.92 144.265 14.32 143.439 14.56L145.939 19.32C146.099 19.6133 146.219 19.8267 146.299 19.96C146.379 20.0933 146.452 20.18 146.519 20.22C146.599 20.2467 146.705 20.2733 146.839 20.3L147.739 20.44V21H143.999L140.979 14.8H139.519V19.32C139.519 19.7733 139.539 20.0467 139.579 20.14C139.619 20.22 139.745 20.2733 139.959 20.3L141.059 20.44V21H135.579V20.44L136.679 20.3C136.892 20.2733 137.019 20.22 137.059 20.14C137.099 20.0467 137.119 19.7733 137.119 19.32V9.08C137.119 8.62667 137.099 8.36 137.059 8.28C137.019 8.18667 136.892 8.12667 136.679 8.1L135.579 7.96ZM141.619 8.1H139.519V14.1H141.619C142.205 14.1 142.652 13.92 142.959 13.56C143.279 13.1867 143.439 12.5067 143.439 11.52V10.66C143.439 9.67333 143.279 9 142.959 8.64C142.652 8.28 142.205 8.1 141.619 8.1ZM157.226 18.62C156.986 19.5533 156.539 20.22 155.886 20.62C155.233 21.0067 154.473 21.2 153.606 21.2C152.006 21.2 150.806 20.74 150.006 19.82C149.206 18.8867 148.806 17.6533 148.806 16.12V15.72C148.806 14.1867 149.179 12.96 149.926 12.04C150.686 11.12 151.779 10.66 153.206 10.66C154.006 10.66 154.713 10.82 155.326 11.14C155.953 11.4467 156.439 11.8933 156.786 12.48C157.146 13.0667 157.326 13.78 157.326 14.62C157.326 14.82 157.313 15.0333 157.286 15.26C157.273 15.4867 157.239 15.7133 157.186 15.94H151.266V16.52C151.266 17.9333 151.466 18.9533 151.866 19.58C152.266 20.1933 152.913 20.5 153.806 20.5C154.379 20.5 154.866 20.3333 155.266 20C155.666 19.6533 155.893 19.0733 155.946 18.26L157.226 18.62ZM153.206 11.36C152.553 11.36 152.066 11.66 151.746 12.26C151.426 12.86 151.266 13.8533 151.266 15.24H154.886C154.939 14.9733 154.973 14.7267 154.986 14.5C155.013 14.26 155.026 14.04 155.026 13.84C155.026 12.9867 154.859 12.36 154.526 11.96C154.193 11.56 153.753 11.36 153.206 11.36ZM169.712 20.44V21H165.992V19.34C165.619 19.9533 165.199 20.42 164.732 20.74C164.279 21.0467 163.739 21.2 163.112 21.2C161.992 21.2 161.099 20.76 160.432 19.88C159.779 18.9867 159.452 17.74 159.452 16.14V15.74C159.452 14.1933 159.832 12.96 160.592 12.04C161.365 11.12 162.419 10.66 163.752 10.66C164.552 10.66 165.259 10.86 165.872 11.26V7.88C165.872 7.42667 165.852 7.16 165.812 7.08C165.772 6.98667 165.645 6.92667 165.432 6.9L164.332 6.76V6.2H168.172V19.32C168.172 19.7733 168.192 20.0467 168.232 20.14C168.272 20.22 168.399 20.2733 168.612 20.3L169.712 20.44ZM161.912 16.74C161.912 17.98 162.065 18.8867 162.372 19.46C162.679 20.0333 163.099 20.32 163.632 20.32C163.965 20.32 164.312 20.1867 164.672 19.92C165.045 19.64 165.445 19.08 165.872 18.24V12.2C165.365 11.6933 164.745 11.44 164.012 11.44C163.279 11.44 162.745 11.7733 162.412 12.44C162.079 13.0933 161.912 13.9933 161.912 15.14V16.74ZM181.831 20.44V21H178.111V19.24C177.738 19.92 177.258 20.42 176.671 20.74C176.085 21.0467 175.491 21.2 174.891 21.2C173.945 21.2 173.191 20.8867 172.631 20.26C172.071 19.62 171.791 18.7333 171.791 17.6V12.54C171.791 12.0867 171.771 11.82 171.731 11.74C171.691 11.6467 171.565 11.5867 171.351 11.56L170.251 11.42V10.86H174.091V17.58C174.091 18.5 174.218 19.1733 174.471 19.6C174.738 20.0133 175.118 20.22 175.611 20.22C175.825 20.22 176.071 20.1667 176.351 20.06C176.645 19.94 176.938 19.7333 177.231 19.44C177.525 19.1333 177.778 18.7 177.991 18.14V12.54C177.991 12.0867 177.971 11.8133 177.931 11.72C177.891 11.6267 177.765 11.5733 177.551 11.56L176.051 11.42V10.86H180.291V19.32C180.291 19.7733 180.311 20.0467 180.351 20.14C180.391 20.22 180.518 20.2733 180.731 20.3L181.831 20.44ZM186.26 20.44V21H182.26V20.44L183.36 20.3C183.493 20.2733 183.593 20.2467 183.66 20.22C183.74 20.18 183.833 20.0933 183.94 19.96C184.047 19.8267 184.2 19.6133 184.4 19.32L186.54 16.2L184.4 12.54C184.227 12.2333 184.093 12.02 184 11.9C183.907 11.7667 183.82 11.68 183.74 11.64C183.66 11.6 183.553 11.5733 183.42 11.56L182.32 11.42V10.86H187.86V11.42L186.76 11.56C186.547 11.5867 186.447 11.64 186.46 11.72C186.473 11.8 186.613 12.0733 186.88 12.54L188.22 14.82L189.76 12.54C190.067 12.0867 190.22 11.82 190.22 11.74C190.233 11.6467 190.133 11.5867 189.92 11.56L188.82 11.42V10.86H192.82V11.42L191.72 11.56C191.587 11.5733 191.48 11.6 191.4 11.64C191.333 11.68 191.247 11.7667 191.14 11.9C191.047 12.02 190.893 12.2333 190.68 12.54L188.64 15.54L190.84 19.32C191.027 19.6267 191.16 19.8467 191.24 19.98C191.333 20.1 191.42 20.18 191.5 20.22C191.58 20.2467 191.687 20.2733 191.82 20.3L192.92 20.44V21H187.38V20.44L188.48 20.3C188.693 20.2733 188.793 20.22 188.78 20.14C188.767 20.0467 188.627 19.7733 188.36 19.32L186.96 16.9L185.32 19.32C185.013 19.7733 184.853 20.0467 184.84 20.14C184.84 20.22 184.947 20.2733 185.16 20.3L186.26 20.44Z" fill="#E3E9EE"/>
</svg>
